{
	"patcher" : 	{
		"fileversion" : 1,
		"rect" : [ 703.0, 72.0, 372.0, 333.0 ],
		"bglocked" : 0,
		"defrect" : [ 703.0, 72.0, 372.0, 333.0 ],
		"openrect" : [ 0.0, 0.0, 0.0, 0.0 ],
		"openinpresentation" : 0,
		"default_fontsize" : 12.0,
		"default_fontface" : 0,
		"default_fontname" : "Arial",
		"gridonopen" : 0,
		"gridsize" : [ 15.0, 15.0 ],
		"gridsnaponopen" : 0,
		"toolbarvisible" : 1,
		"boxanimatetime" : 200,
		"imprint" : 0,
		"metadata" : [  ],
		"boxes" : [ 			{
				"box" : 				{
					"maxclass" : "outlet",
					"hint" : "",
					"id" : "obj-2",
					"patching_rect" : [ 150.0, 267.0, 25.0, 25.0 ],
					"numinlets" : 1,
					"numoutlets" : 0,
					"comment" : "count"
				}

			}
, 			{
				"box" : 				{
					"maxclass" : "inlet",
					"hint" : "",
					"id" : "obj-33",
					"patching_rect" : [ 12.0, 8.0, 25.0, 25.0 ],
					"numinlets" : 0,
					"numoutlets" : 1,
					"outlettype" : [ "" ],
					"comment" : "metro bang"
				}

			}
, 			{
				"box" : 				{
					"maxclass" : "outlet",
					"hint" : "",
					"id" : "obj-32",
					"patching_rect" : [ 28.0, 266.0, 25.0, 25.0 ],
					"numinlets" : 1,
					"numoutlets" : 0,
					"comment" : "metro thru"
				}

			}
, 			{
				"box" : 				{
					"maxclass" : "outlet",
					"hint" : "",
					"id" : "obj-31",
					"patching_rect" : [ 272.0, 269.0, 25.0, 25.0 ],
					"numinlets" : 1,
					"numoutlets" : 0,
					"comment" : "bang out 1"
				}

			}
, 			{
				"box" : 				{
					"maxclass" : "inlet",
					"hint" : "",
					"id" : "obj-30",
					"patching_rect" : [ 280.0, 6.0, 25.0, 25.0 ],
					"numinlets" : 0,
					"numoutlets" : 1,
					"outlettype" : [ "" ],
					"comment" : "trig num"
				}

			}
, 			{
				"box" : 				{
					"maxclass" : "inlet",
					"hint" : "",
					"id" : "obj-29",
					"patching_rect" : [ 251.0, 6.0, 25.0, 25.0 ],
					"numinlets" : 0,
					"numoutlets" : 1,
					"outlettype" : [ "" ],
					"comment" : "max num"
				}

			}
, 			{
				"box" : 				{
					"maxclass" : "inlet",
					"hint" : "",
					"id" : "obj-28",
					"patching_rect" : [ 193.0, 7.0, 25.0, 25.0 ],
					"numinlets" : 0,
					"numoutlets" : 1,
					"outlettype" : [ "" ],
					"comment" : "min num"
				}

			}
, 			{
				"box" : 				{
					"maxclass" : "inlet",
					"hint" : "",
					"id" : "obj-27",
					"patching_rect" : [ 127.0, 8.0, 25.0, 25.0 ],
					"numinlets" : 0,
					"numoutlets" : 1,
					"outlettype" : [ "" ],
					"comment" : "reset count"
				}

			}
, 			{
				"box" : 				{
					"maxclass" : "comment",
					"text" : "out1",
					"id" : "obj-24",
					"fontname" : "Arial",
					"patching_rect" : [ 48.0, 202.0, 32.0, 20.0 ],
					"numinlets" : 1,
					"numoutlets" : 0,
					"fontsize" : 12.0
				}

			}
, 			{
				"box" : 				{
					"maxclass" : "comment",
					"text" : "out2",
					"id" : "obj-23",
					"fontname" : "Arial",
					"patching_rect" : [ 208.0, 201.0, 32.0, 20.0 ],
					"numinlets" : 1,
					"numoutlets" : 0,
					"fontsize" : 12.0
				}

			}
, 			{
				"box" : 				{
					"maxclass" : "comment",
					"text" : "activate point",
					"id" : "obj-22",
					"fontname" : "Arial",
					"patching_rect" : [ 163.0, 150.0, 80.0, 20.0 ],
					"numinlets" : 1,
					"numoutlets" : 0,
					"fontsize" : 12.0
				}

			}
, 			{
				"box" : 				{
					"maxclass" : "comment",
					"text" : "count",
					"id" : "obj-21",
					"fontname" : "Arial",
					"patching_rect" : [ 47.0, 150.0, 42.0, 20.0 ],
					"numinlets" : 1,
					"numoutlets" : 0,
					"fontsize" : 12.0
				}

			}
, 			{
				"box" : 				{
					"maxclass" : "comment",
					"text" : "max",
					"id" : "obj-19",
					"fontname" : "Arial",
					"patching_rect" : [ 204.0, 74.0, 31.0, 20.0 ],
					"numinlets" : 1,
					"numoutlets" : 0,
					"fontsize" : 12.0
				}

			}
, 			{
				"box" : 				{
					"maxclass" : "comment",
					"text" : "min",
					"id" : "obj-18",
					"fontname" : "Arial",
					"patching_rect" : [ 127.0, 73.0, 29.0, 20.0 ],
					"numinlets" : 1,
					"numoutlets" : 0,
					"fontsize" : 12.0
				}

			}
, 			{
				"box" : 				{
					"maxclass" : "comment",
					"text" : "reset",
					"id" : "obj-15",
					"fontname" : "Arial",
					"patching_rect" : [ 115.0, 48.0, 38.0, 20.0 ],
					"numinlets" : 1,
					"numoutlets" : 0,
					"fontsize" : 12.0
				}

			}
, 			{
				"box" : 				{
					"maxclass" : "button",
					"id" : "obj-11",
					"patching_rect" : [ 243.0, 200.0, 21.0, 21.0 ],
					"numinlets" : 1,
					"numoutlets" : 1,
					"outlettype" : [ "bang" ]
				}

			}
, 			{
				"box" : 				{
					"maxclass" : "button",
					"id" : "obj-10",
					"blinkcolor" : [ 1.0, 0.0, 0.07451, 1.0 ],
					"patching_rect" : [ 83.0, 201.0, 21.0, 21.0 ],
					"numinlets" : 1,
					"numoutlets" : 1,
					"outlettype" : [ "bang" ]
				}

			}
, 			{
				"box" : 				{
					"maxclass" : "number",
					"id" : "obj-9",
					"fontname" : "Arial",
					"patching_rect" : [ 243.0, 151.0, 50.0, 20.0 ],
					"numinlets" : 1,
					"numoutlets" : 2,
					"fontsize" : 12.0,
					"outlettype" : [ "int", "bang" ]
				}

			}
, 			{
				"box" : 				{
					"maxclass" : "newobj",
					"text" : "if $i1 == $i2 then tb else out2 tb",
					"id" : "obj-7",
					"fontname" : "Arial",
					"patching_rect" : [ 84.0, 177.0, 178.0, 20.0 ],
					"numinlets" : 2,
					"numoutlets" : 2,
					"fontsize" : 12.0,
					"outlettype" : [ "", "" ]
				}

			}
, 			{
				"box" : 				{
					"maxclass" : "number",
					"id" : "obj-6",
					"fontname" : "Arial",
					"patching_rect" : [ 84.0, 150.0, 50.0, 20.0 ],
					"numinlets" : 1,
					"numoutlets" : 2,
					"fontsize" : 12.0,
					"outlettype" : [ "int", "bang" ]
				}

			}
, 			{
				"box" : 				{
					"maxclass" : "message",
					"text" : "0.",
					"id" : "obj-3",
					"fontname" : "Arial",
					"patching_rect" : [ 154.0, 50.0, 32.5, 18.0 ],
					"numinlets" : 2,
					"numoutlets" : 1,
					"fontsize" : 12.0,
					"outlettype" : [ "" ]
				}

			}
, 			{
				"box" : 				{
					"maxclass" : "number",
					"id" : "obj-35",
					"fontname" : "Arial",
					"patching_rect" : [ 234.0, 72.888885, 50.0, 20.0 ],
					"numinlets" : 1,
					"numoutlets" : 2,
					"fontsize" : 11.595187,
					"outlettype" : [ "int", "bang" ]
				}

			}
, 			{
				"box" : 				{
					"maxclass" : "message",
					"text" : "min $1",
					"id" : "obj-36",
					"fontname" : "Arial",
					"patching_rect" : [ 154.0, 94.888885, 43.0, 18.0 ],
					"numinlets" : 2,
					"numoutlets" : 1,
					"fontsize" : 11.595187,
					"outlettype" : [ "" ]
				}

			}
, 			{
				"box" : 				{
					"maxclass" : "number",
					"id" : "obj-37",
					"fontname" : "Arial",
					"patching_rect" : [ 154.0, 73.0, 50.0, 20.0 ],
					"numinlets" : 1,
					"numoutlets" : 2,
					"fontsize" : 11.595187,
					"outlettype" : [ "int", "bang" ]
				}

			}
, 			{
				"box" : 				{
					"maxclass" : "message",
					"text" : "max $1",
					"id" : "obj-38",
					"fontname" : "Arial",
					"patching_rect" : [ 234.0, 95.888885, 47.0, 18.0 ],
					"numinlets" : 2,
					"numoutlets" : 1,
					"fontsize" : 11.595187,
					"outlettype" : [ "" ]
				}

			}
, 			{
				"box" : 				{
					"maxclass" : "button",
					"id" : "obj-69",
					"patching_rect" : [ 12.0, 89.0, 21.0, 21.0 ],
					"numinlets" : 1,
					"numoutlets" : 1,
					"outlettype" : [ "bang" ]
				}

			}
, 			{
				"box" : 				{
					"maxclass" : "newobj",
					"text" : "counter",
					"id" : "obj-1",
					"fontname" : "Arial",
					"patching_rect" : [ 84.0, 127.0, 73.0, 20.0 ],
					"numinlets" : 5,
					"numoutlets" : 4,
					"fontsize" : 12.0,
					"outlettype" : [ "int", "", "", "int" ]
				}

			}
 ],
		"lines" : [ 			{
				"patchline" : 				{
					"source" : [ "obj-27", 0 ],
					"destination" : [ "obj-3", 0 ],
					"hidden" : 0,
					"midpoints" : [  ]
				}

			}
, 			{
				"patchline" : 				{
					"source" : [ "obj-35", 0 ],
					"destination" : [ "obj-38", 0 ],
					"hidden" : 0,
					"midpoints" : [  ]
				}

			}
, 			{
				"patchline" : 				{
					"source" : [ "obj-37", 0 ],
					"destination" : [ "obj-36", 0 ],
					"hidden" : 0,
					"midpoints" : [  ]
				}

			}
, 			{
				"patchline" : 				{
					"source" : [ "obj-38", 0 ],
					"destination" : [ "obj-1", 0 ],
					"hidden" : 0,
					"midpoints" : [  ]
				}

			}
, 			{
				"patchline" : 				{
					"source" : [ "obj-36", 0 ],
					"destination" : [ "obj-1", 0 ],
					"hidden" : 0,
					"midpoints" : [  ]
				}

			}
, 			{
				"patchline" : 				{
					"source" : [ "obj-69", 0 ],
					"destination" : [ "obj-1", 0 ],
					"hidden" : 0,
					"midpoints" : [  ]
				}

			}
, 			{
				"patchline" : 				{
					"source" : [ "obj-3", 0 ],
					"destination" : [ "obj-37", 0 ],
					"hidden" : 0,
					"midpoints" : [  ]
				}

			}
, 			{
				"patchline" : 				{
					"source" : [ "obj-1", 0 ],
					"destination" : [ "obj-6", 0 ],
					"hidden" : 0,
					"midpoints" : [  ]
				}

			}
, 			{
				"patchline" : 				{
					"source" : [ "obj-6", 0 ],
					"destination" : [ "obj-7", 0 ],
					"hidden" : 0,
					"midpoints" : [  ]
				}

			}
, 			{
				"patchline" : 				{
					"source" : [ "obj-7", 0 ],
					"destination" : [ "obj-10", 0 ],
					"hidden" : 0,
					"midpoints" : [  ]
				}

			}
, 			{
				"patchline" : 				{
					"source" : [ "obj-7", 1 ],
					"destination" : [ "obj-11", 0 ],
					"hidden" : 0,
					"midpoints" : [  ]
				}

			}
, 			{
				"patchline" : 				{
					"source" : [ "obj-9", 0 ],
					"destination" : [ "obj-7", 1 ],
					"hidden" : 0,
					"midpoints" : [  ]
				}

			}
, 			{
				"patchline" : 				{
					"source" : [ "obj-28", 0 ],
					"destination" : [ "obj-37", 0 ],
					"hidden" : 0,
					"midpoints" : [  ]
				}

			}
, 			{
				"patchline" : 				{
					"source" : [ "obj-29", 0 ],
					"destination" : [ "obj-35", 0 ],
					"hidden" : 0,
					"midpoints" : [  ]
				}

			}
, 			{
				"patchline" : 				{
					"source" : [ "obj-30", 0 ],
					"destination" : [ "obj-9", 0 ],
					"hidden" : 0,
					"midpoints" : [  ]
				}

			}
, 			{
				"patchline" : 				{
					"source" : [ "obj-10", 0 ],
					"destination" : [ "obj-31", 0 ],
					"hidden" : 0,
					"midpoints" : [  ]
				}

			}
, 			{
				"patchline" : 				{
					"source" : [ "obj-11", 0 ],
					"destination" : [ "obj-32", 0 ],
					"hidden" : 0,
					"midpoints" : [  ]
				}

			}
, 			{
				"patchline" : 				{
					"source" : [ "obj-33", 0 ],
					"destination" : [ "obj-69", 0 ],
					"hidden" : 0,
					"midpoints" : [  ]
				}

			}
, 			{
				"patchline" : 				{
					"source" : [ "obj-6", 0 ],
					"destination" : [ "obj-2", 0 ],
					"hidden" : 0,
					"midpoints" : [  ]
				}

			}
 ]
	}

}
